HIERARCHY
ROOT Hips
{
	OFFSET -0.031289 103.266464 0.443827
	CHANNELS 6 Xposition Yposition Zposition Xrotation Yrotation Zrotation 
	JOINT Spine
	{
		OFFSET -0.002448 12.777534 0.315252
		CHANNELS 3 Xrotation Yrotation Zrotation
		JOINT Spine1
		{
			OFFSET -0.002040 5.816851 0.032640
			CHANNELS 3 Xrotation Yrotation Zrotation
			JOINT Spine1_split
			{
				OFFSET -0.002040 5.816851 0.032640
				CHANNELS 3 Xrotation Yrotation Zrotation
				JOINT Spine2
				{
					OFFSET -0.002040 5.816851 0.032640
					CHANNELS 3 Xrotation Yrotation Zrotation
					JOINT Neck
					{
						OFFSET -0.003672 21.199554 -0.826883
						CHANNELS 3 Xrotation Yrotation Zrotation
						JOINT Head
						{
							OFFSET -0.000000 20.442154 4.834770
							CHANNELS 3 Xrotation Yrotation Zrotation
							JOINT HeadTop_End
							{
								OFFSET 0.000000 34.668427 4.968426
								CHANNELS 3 Xrotation Yrotation Zrotation
								End Site
								{
									OFFSET 0.000000 0.000000 0.000000
								}
							}
						}
					}
					JOINT LeftShoulder
					{
						OFFSET 3.288174 8.794213 -1.372251
						CHANNELS 3 Xrotation Yrotation Zrotation
						JOINT LeftShoulder_split
						{
							OFFSET 3.288174 8.794213 -1.372251
							CHANNELS 3 Xrotation Yrotation Zrotation
							JOINT LeftArm
							{
								OFFSET 11.953302 -2.279037 -0.146175
								CHANNELS 3 Xrotation Yrotation Zrotation
								JOINT LeftForeArm
								{
									OFFSET 18.448874 0.000061 -0.000024
									CHANNELS 3 Xrotation Yrotation Zrotation
									JOINT LeftHand
									{
										OFFSET 29.527794 0.000092 -0.000021
										CHANNELS 3 Xrotation Yrotation Zrotation
										JOINT LeftHandThumb1
										{
											OFFSET 10.739838 -2.369766 9.225297
											CHANNELS 3 Xrotation Yrotation Zrotation
											JOINT LeftHandThumb2
											{
												OFFSET 4.926178 -2.844101 2.844107
												CHANNELS 3 Xrotation Yrotation Zrotation
												JOINT LeftHandThumb3
												{
													OFFSET 4.614899 -2.664444 2.664389
													CHANNELS 3 Xrotation Yrotation Zrotation
													JOINT LeftHandThumb4
													{
														OFFSET 4.432472 -2.559052 2.559026
														CHANNELS 3 Xrotation Yrotation Zrotation
														End Site
														{
															OFFSET 0.000000 0.000000 0.000000
														}
													}
												}
											}
										}
										JOINT LeftHandIndex1
										{
											OFFSET 26.467659 0.187592 6.405249
											CHANNELS 3 Xrotation Yrotation Zrotation
											JOINT LeftHandIndex2
											{
												OFFSET 8.792877 0.000046 -0.000014
												CHANNELS 3 Xrotation Yrotation Zrotation
												JOINT LeftHandIndex3
												{
													OFFSET 10.075157 0.000031 -0.000014
													CHANNELS 3 Xrotation Yrotation Zrotation
													End Site
													{
														OFFSET 0.000000 0.000000 0.000000
													}
												}
											}
										}
										JOINT LeftHandMiddle1
										{
											OFFSET 25.764420 0.000076 -0.000063
											CHANNELS 3 Xrotation Yrotation Zrotation
											JOINT LeftHandMiddle2
											{
												OFFSET 9.368942 -0.468658 -0.500905
												CHANNELS 3 Xrotation Yrotation Zrotation
												JOINT LeftHandMiddle3
												{
													OFFSET 10.758461 -0.538101 0.000023
													CHANNELS 3 Xrotation Yrotation Zrotation
													End Site
													{
														OFFSET 0.000000 0.000000 0.000000
													}
												}
											}
										}
										JOINT LeftHandRing1
										{
											OFFSET 24.660912 0.144745 -6.225863
											CHANNELS 3 Xrotation Yrotation Zrotation
											JOINT LeftHandRing2
											{
												OFFSET 9.393806 0.000046 -0.000017
												CHANNELS 3 Xrotation Yrotation Zrotation
												JOINT LeftHandRing3
												{
													OFFSET 9.928528 -0.000015 -0.000007
													CHANNELS 3 Xrotation Yrotation Zrotation
													End Site
													{
														OFFSET 0.000000 0.000000 0.000000
													}
												}
											}
										}
										JOINT LeftHandPinky1
										{
											OFFSET 23.655312 0.125748 -12.815530
											CHANNELS 3 Xrotation Yrotation Zrotation
											JOINT LeftHandPinky2
											{
												OFFSET 8.425102 0.000031 -0.000015
												CHANNELS 3 Xrotation Yrotation Zrotation
												JOINT LeftHandPinky3
												{
													OFFSET 8.146988 0.000015 -0.000021
													CHANNELS 3 Xrotation Yrotation Zrotation
													End Site
													{
														OFFSET 0.000000 0.000000 0.000000
													}
												}
											}
										}
									}
								}
							}
						}
					}
					JOINT RightShoulder
					{
						OFFSET -3.249397 8.794213 -1.372251
						CHANNELS 3 Xrotation Yrotation Zrotation
						JOINT RightShoulder_split
						{
							OFFSET -3.249397 8.794213 -1.372251
							CHANNELS 3 Xrotation Yrotation Zrotation
							JOINT RightArm
							{
								OFFSET -11.953302 -2.279037 -0.146175
								CHANNELS 3 Xrotation Yrotation Zrotation
								JOINT RightForeArm
								{
									OFFSET -18.448874 0.000061 -0.000024
									CHANNELS 3 Xrotation Yrotation Zrotation
									JOINT RightHand
									{
										OFFSET -29.527794 0.000092 -0.000021
										CHANNELS 3 Xrotation Yrotation Zrotation
										JOINT RightHandThumb1
										{
											OFFSET -10.739838 -2.369766 9.225297
											CHANNELS 3 Xrotation Yrotation Zrotation
											JOINT RightHandThumb2
											{
												OFFSET -4.926178 -2.844101 2.844107
												CHANNELS 3 Xrotation Yrotation Zrotation
												JOINT RightHandThumb3
												{
													OFFSET -4.614899 -2.664444 2.664389
													CHANNELS 3 Xrotation Yrotation Zrotation
													JOINT RightHandThumb4
													{
														OFFSET -4.432472 -2.559052 2.559026
														CHANNELS 3 Xrotation Yrotation Zrotation
														End Site
														{
															OFFSET 0.000000 0.000000 0.000000
														}
													}
												}
											}
										}
										JOINT RightHandIndex1
										{
											OFFSET -26.467659 0.187592 6.405249
											CHANNELS 3 Xrotation Yrotation Zrotation
											JOINT RightHandIndex2
											{
												OFFSET -8.792877 0.000046 -0.000014
												CHANNELS 3 Xrotation Yrotation Zrotation
												JOINT RightHandIndex3
												{
													OFFSET -10.075157 0.000031 -0.000014
													CHANNELS 3 Xrotation Yrotation Zrotation
													End Site
													{
														OFFSET 0.000000 0.000000 0.000000
													}
												}
											}
										}
										JOINT RightHandMiddle1
										{
											OFFSET -25.764420 0.000076 -0.000063
											CHANNELS 3 Xrotation Yrotation Zrotation
											JOINT RightHandMiddle2
											{
												OFFSET -9.368942 -0.468658 -0.500905
												CHANNELS 3 Xrotation Yrotation Zrotation
												JOINT RightHandMiddle3
												{
													OFFSET -10.758461 -0.538101 0.000023
													CHANNELS 3 Xrotation Yrotation Zrotation
													End Site
													{
														OFFSET 0.000000 0.000000 0.000000
													}
												}
											}
										}
										JOINT RightHandRing1
										{
											OFFSET -24.660912 0.144745 -6.225863
											CHANNELS 3 Xrotation Yrotation Zrotation
											JOINT RightHandRing2
											{
												OFFSET -9.393806 0.000046 -0.000017
												CHANNELS 3 Xrotation Yrotation Zrotation
												JOINT RightHandRing3
												{
													OFFSET -9.928528 -0.000015 -0.000007
													CHANNELS 3 Xrotation Yrotation Zrotation
													End Site
													{
														OFFSET 0.000000 0.000000 0.000000
													}
												}
											}
										}
										JOINT RightHandPinky1
										{
											OFFSET -23.655312 0.125748 -12.815530
											CHANNELS 3 Xrotation Yrotation Zrotation
											JOINT RightHandPinky2
											{
												OFFSET -8.425102 0.000031 -0.000015
												CHANNELS 3 Xrotation Yrotation Zrotation
												JOINT RightHandPinky3
												{
													OFFSET -8.146980 0.000015 -0.000021
													CHANNELS 3 Xrotation Yrotation Zrotation
													End Site
													{
														OFFSET 0.000000 0.000000 0.000000
													}
												}
											}
										}
									}
								}
							}
						}
					}
				}
			}
		}
	}
	JOINT LeftUpLeg
	{
		OFFSET 11.394079 -6.187805 -0.413817
		CHANNELS 3 Xrotation Yrotation Zrotation
		JOINT LeftLeg
		{
			OFFSET 0.435522 -32.302582 3.732836
			CHANNELS 3 Xrotation Yrotation Zrotation
			JOINT LeftFoot
			{
				OFFSET -0.422448 -48.265030 -6.423308
				CHANNELS 3 Xrotation Yrotation Zrotation
				JOINT LeftToeBase
				{
					OFFSET 4.230914 -16.068172 23.438400
					CHANNELS 3 Xrotation Yrotation Zrotation
					JOINT LeftToe_End
					{
						OFFSET 4.510741 0.695408 19.974636
						CHANNELS 3 Xrotation Yrotation Zrotation
						End Site
						{
							OFFSET 0.000000 0.000000 0.000000
						}
					}
				}
			}
		}
	}
	JOINT RightUpLeg
	{
		OFFSET -11.333660 -6.187805 -0.413817
		CHANNELS 3 Xrotation Yrotation Zrotation
		JOINT RightLeg
		{
			OFFSET -0.425090 -32.302704 3.733010
			CHANNELS 3 Xrotation Yrotation Zrotation
			JOINT RightFoot
			{
				OFFSET 0.438313 -48.264862 -6.423481
				CHANNELS 3 Xrotation Yrotation Zrotation
				JOINT RightToeBase
				{
					OFFSET -4.230914 -16.068172 23.438402
					CHANNELS 3 Xrotation Yrotation Zrotation
					JOINT RightToe_End
					{
						OFFSET -4.510741 0.695407 19.974638
						CHANNELS 3 Xrotation Yrotation Zrotation
						End Site
						{
							OFFSET 0.000000 0.000000 0.000000
						}
					}
				}
			}
		}
	}
}
MOTION
Frames: 4
Frame Time: 0.016667
3.230464 118.972450 5.865731 -12.477877 -0.900456 -1.776394 -3.010323 -2.645951 2.766813 1.341448 -0.394057 2.093240 0.000000 0.000000 0.000000 1.345713 -0.282894 2.116649 9.657572 -4.849573 7.404084 10.314030 -25.265816 25.481317 -0.000003 0.000000 -0.000002 0.516762 0.363761 -1.548822 0.000000 0.000000 0.000000 -67.007359 11.655889 -6.337091 -0.001207 -103.323072 -0.001403 33.845971 -16.912033 57.751053 -33.824435 -0.913667 -1.719204 0.756857 13.225436 10.455030 -2.002135 4.257324 7.203443 -0.000001 0.000000 0.000001 0.211008 -1.694775 14.191572 0.000879 0.109988 -0.911364 -0.000000 -0.000003 -0.000000 -0.154690 0.350463 15.803367 0.178204 3.390682 -2.845362 -0.000001 0.000002 0.000001 -1.961790 9.651185 11.516947 0.029421 0.637213 -5.286975 -0.000000 0.000001 -0.000004 -3.356102 19.360342 11.046575 0.043356 -3.194776 -7.650603 0.000000 0.000000 0.000001 0.412525 -1.336043 6.758931 0.000000 0.000000 0.000000 -57.393513 -8.077839 -3.367425 -0.002056 98.484450 0.002263 13.362227 32.479469 -69.446809 -14.217626 7.130496 -4.862124 7.504524 -13.863227 0.512640 0.120395 -2.489157 -2.005757 -0.000001 0.000000 -0.000000 0.098565 -1.169370 9.637978 0.002353 -0.181611 1.490008 0.000001 -0.000001 -0.000001 0.384761 -2.451848 5.529129 0.159601 -3.168236 0.964552 -0.000001 -0.000001 0.000001 1.378542 -10.912574 6.935963 0.000108 -0.038992 0.319792 0.000001 0.000000 0.000004 1.747940 -15.788906 5.630615 0.000001 -0.000004 0.000058 -0.000000 0.000000 -0.000001 -14.865973 -20.492072 9.172560 90.083119 7.729800 0.910688 27.207654 7.611509 16.974347 -0.000000 -0.000003 -0.000000 0.000000 -0.000002 -0.000000 -12.345369 19.437419 -13.724744 65.224352 7.645789 -7.184035 28.419985 1.152668 9.682696 -0.000021 -0.000007 -0.000005 0.000001 -0.000001 -0.000001 
3.289152 119.015594 6.113731 -11.447108 -1.076541 -2.332828 -4.331925 -3.132336 3.187824 2.021575 -0.426599 2.098099 0.000000 0.000000 0.000000 2.027289 -0.327235 2.120047 9.516430 -4.818840 7.555532 10.160706 -24.632278 24.655156 -0.000001 -0.000001 -0.000003 0.564560 0.109994 -2.570569 0.000000 0.000000 0.000000 -64.876579 11.191679 -7.048630 -0.001738 -99.955987 -0.001946 34.105802 -17.084159 56.686260 -33.236182 -0.600400 -1.306221 0.833246 13.266655 10.325678 -1.964633 4.274647 7.143907 0.000003 0.000000 -0.000002 0.194400 -1.627723 13.618740 0.001186 0.128553 -1.065032 -0.000001 0.000002 -0.000003 -0.106835 0.235966 15.047310 0.182142 3.428858 -3.167116 -0.000001 0.000002 -0.000003 -1.715941 9.331352 10.506798 0.035635 0.701083 -5.818624 -0.000001 -0.000002 -0.000002 -2.841239 18.860811 9.755207 0.054927 -3.112467 -8.338430 -0.000000 -0.000001 -0.000000 0.561011 -1.704311 9.089407 0.000000 0.000000 0.000000 -54.789988 -10.822401 -2.213514 -0.002684 95.943046 0.002880 13.154838 36.148595 -67.532519 -13.855759 6.731522 -5.120719 7.504528 -13.863230 0.512641 0.120399 -2.489159 -2.005758 -0.000001 -0.000000 0.000001 0.102752 -1.193782 9.841328 0.003079 -0.207217 1.700349 0.000000 0.000000 -0.000000 0.374721 -2.336274 5.891369 0.161148 -3.190807 1.152083 -0.000000 -0.000001 0.000000 1.432344 -10.612529 7.500752 0.000226 -0.055639 0.456602 0.000000 0.000000 -0.000001 1.879448 -15.323763 6.384387 0.000001 0.000002 0.000069 0.000001 -0.000000 -0.000003 -13.518063 -14.593285 9.735451 81.445812 5.373256 2.344792 22.366279 5.357623 14.659700 0.000027 0.000000 0.000019 -0.000000 0.000001 0.000002 -10.830777 14.079158 -13.529484 55.802676 8.893864 -7.276780 22.573225 3.411384 11.670745 0.000004 -0.000003 0.000001 0.000004 0.000000 0.000001 
3.222501 118.761719 6.299188 -10.222375 -1.268944 -2.636939 -6.254800 -3.572272 3.287698 2.861510 -0.453707 2.096758 0.000000 0.000000 0.000000 2.868642 -0.368867 2.115151 9.329690 -4.722055 7.652863 9.856695 -23.667297 23.679667 -0.000000 0.000000 -0.000001 0.612454 -0.061213 -3.967415 0.000000 0.000000 0.000000 -62.221773 10.938561 -8.444354 -0.002193 -96.489611 -0.002372 33.476400 -17.090602 55.082218 -32.619665 -0.264371 -0.879623 0.913916 13.310088 10.189088 -1.925007 4.292905 7.081010 0.000001 0.000001 -0.000001 0.177542 -1.556511 13.011987 0.001580 0.148289 -1.228494 0.000001 0.000002 -0.000004 -0.058062 0.101351 14.234502 0.186704 3.470728 -3.520306 0.000000 0.000002 0.000002 -1.461638 8.959957 9.411141 0.043205 0.771777 -6.407614 0.000001 0.000000 0.000001 -2.307016 18.278623 8.352166 0.068934 -3.021225 -9.102369 0.000000 0.000001 0.000001 0.739612 -2.066471 11.589578 0.000000 0.000000 0.000000 -51.415171 -14.061491 -0.653229 -0.005460 93.325990 0.005633 11.820669 39.502303 -64.405317 -13.477363 6.309552 -5.387801 7.504524 -13.863228 0.512642 0.120399 -2.489159 -2.005757 -0.000000 0.000000 -0.000000 0.107260 -1.219458 10.055223 0.003926 -0.234179 1.921607 -0.000000 -0.000000 -0.000001 0.358868 -2.191667 6.299059 0.164139 -3.231643 1.492105 -0.000000 0.000000 0.000000 1.483281 -10.243239 8.153820 0.000953 -0.115639 0.948840 0.000000 -0.000000 0.000001 2.013372 -14.752406 7.264739 0.000332 -0.068008 0.557868 -0.000000 0.000000 -0.000000 -12.425733 -7.428215 9.571730 71.948782 -0.098122 4.907374 18.493347 4.794507 10.982008 0.000013 -0.000002 0.000003 0.000000 -0.000001 -0.000001 -8.717992 9.948785 -13.357081 45.215992 7.730089 -6.115931 18.424847 8.735555 13.530443 0.000003 -0.000002 -0.000004 0.000003 0.000001 -0.000001 
3.075920 118.096619 6.394932 -8.898861 -1.426165 -2.635421 -8.581744 -3.938301 3.049706 3.797964 -0.479772 2.056644 0.000000 0.000000 0.000000 3.806294 -0.410127 2.069780 9.100109 -4.559097 7.670185 9.248858 -22.438377 22.518227 -0.000001 -0.000000 0.000001 0.663780 -0.192290 -5.684538 0.000000 0.000000 0.000000 -59.117398 10.922237 -10.644563 -0.001354 -93.000737 -0.001517 31.915842 -16.681731 52.718754 -31.976661 0.094349 -0.441607 0.998702 13.355565 10.045551 -1.883419 4.312142 7.014966 -0.000000 0.000001 -0.000001 0.160615 -1.481327 12.372901 0.002068 0.169129 -1.401270 0.000000 -0.000000 -0.000003 -0.010538 -0.050514 13.369830 0.191921 3.515898 -3.901585 -0.000000 0.000001 -0.000004 -1.206253 8.542980 8.239933 0.052237 0.848395 -7.046874 0.000000 -0.000000 -0.000001 -1.768722 17.621881 6.853942 0.085557 -2.922326 -9.932475 0.000000 0.000000 -0.000001 0.853342 -2.433699 12.010844 0.000000 0.000000 0.000000 -46.466074 -19.077979 3.079745 0.078204 90.437859 -0.077812 9.169782 42.241619 -60.099702 -13.083667 5.865302 -5.662080 7.504524 -13.863229 0.512637 0.120397 -2.489160 -2.005757 0.000001 0.000000 0.000002 0.112073 -1.246305 10.279189 0.004936 -0.262402 2.153253 -0.000000 -0.000000 0.000000 0.336840 -2.022134 6.747024 0.168376 -3.284300 1.930721 0.000000 -0.000000 0.000001 1.527081 -9.814213 8.883775 0.002904 -0.201175 1.650786 -0.000000 0.000000 -0.000000 2.139466 -14.089161 8.253908 0.002256 -0.177594 1.457271 0.000001 -0.000000 -0.000001 -11.059505 -1.569971 9.403523 61.484694 -2.018606 6.392537 16.306214 -0.031682 7.131611 0.000018 -0.000001 -0.000004 -0.000001 0.000000 -0.000000 -6.137307 6.985782 -13.014252 34.375181 7.344537 -3.964621 16.678497 12.906336 16.065737 -0.000003 -0.000001 -0.000003 -0.000003 0.000001 -0.000000 
